<svg width="77" height="30" viewBox="0 0 77 30" fill="none" xmlns="http://www.w3.org/2000/svg">
<circle cx="15" cy="15" r="15" fill="#4B795D"/>
<path d="M11.8 23V21.2222H7V7H23V21.2222H18.2V23H11.8ZM8.6 19.4444H21.4V8.77778H8.6V19.4444Z" fill="white"/>
<path d="M25 6H69.5C73.6421 6 77 9.35786 77 13.5V13.5C77 17.6421 73.6421 21 69.5 21H25V6Z" fill="#4B795D"/>
<path d="M35.8395 12.0923H34.7315C34.6889 11.8556 34.6096 11.6473 34.4936 11.4673C34.3776 11.2874 34.2356 11.1347 34.0675 11.0092C33.8994 10.8838 33.7112 10.7891 33.5028 10.7251C33.2969 10.6612 33.0779 10.6293 32.8459 10.6293C32.4268 10.6293 32.0516 10.7346 31.7202 10.9453C31.3911 11.156 31.1307 11.465 30.9389 11.8722C30.7495 12.2794 30.6548 12.7765 30.6548 13.3636C30.6548 13.9555 30.7495 14.455 30.9389 14.8622C31.1307 15.2694 31.3923 15.5772 31.7237 15.7855C32.0552 15.9938 32.428 16.098 32.8423 16.098C33.072 16.098 33.2898 16.0672 33.4957 16.0057C33.7041 15.9418 33.8923 15.8482 34.0604 15.7251C34.2285 15.602 34.3705 15.4517 34.4865 15.2741C34.6049 15.0942 34.6866 14.8883 34.7315 14.6562L35.8395 14.6598C35.7803 15.0173 35.6655 15.3464 35.495 15.647C35.3269 15.9453 35.1103 16.2034 34.8452 16.4212C34.5824 16.6366 34.2817 16.8035 33.9432 16.9219C33.6046 17.0402 33.2353 17.0994 32.8352 17.0994C32.2055 17.0994 31.6444 16.9503 31.152 16.652C30.6596 16.3513 30.2713 15.9216 29.9872 15.3629C29.7055 14.8042 29.5646 14.1378 29.5646 13.3636C29.5646 12.5871 29.7067 11.9207 29.9908 11.3643C30.2749 10.8056 30.6631 10.3771 31.1555 10.0788C31.648 9.77817 32.2079 9.62784 32.8352 9.62784C33.2211 9.62784 33.581 9.68348 33.9148 9.79474C34.2509 9.90365 34.5528 10.0646 34.8203 10.2777C35.0878 10.4884 35.3092 10.7464 35.4844 11.0518C35.6596 11.3549 35.7779 11.7017 35.8395 12.0923ZM38.6547 17.1207C38.309 17.1207 37.9965 17.0568 37.7172 16.929C37.4378 16.7988 37.2164 16.6106 37.0531 16.3643C36.8921 16.1181 36.8116 15.8163 36.8116 15.4588C36.8116 15.151 36.8708 14.8977 36.9892 14.6989C37.1075 14.5 37.2673 14.3426 37.4686 14.2266C37.6698 14.1106 37.8947 14.023 38.1433 13.9638C38.3919 13.9046 38.6452 13.8596 38.9032 13.8288C39.2299 13.791 39.4951 13.7602 39.6987 13.7365C39.9023 13.7105 40.0502 13.669 40.1426 13.6122C40.2349 13.5554 40.2811 13.4631 40.2811 13.3352V13.3104C40.2811 13.0002 40.1935 12.7599 40.0183 12.5895C39.8455 12.419 39.5874 12.3338 39.2441 12.3338C38.8867 12.3338 38.6049 12.4131 38.399 12.5717C38.1954 12.728 38.0545 12.902 37.9764 13.0938L36.9785 12.8665C37.0969 12.535 37.2697 12.2675 37.497 12.0639C37.7266 11.858 37.9906 11.7088 38.2889 11.6165C38.5872 11.5218 38.9009 11.4744 39.2299 11.4744C39.4477 11.4744 39.6786 11.5005 39.9224 11.5526C40.1686 11.6023 40.3983 11.6946 40.6113 11.8295C40.8268 11.9645 41.0031 12.1574 41.1404 12.4084C41.2778 12.657 41.3464 12.9801 41.3464 13.3778V17H40.3095V16.2543H40.2669C40.1982 16.3916 40.0952 16.5265 39.9579 16.6591C39.8206 16.7917 39.6442 16.9018 39.4288 16.9893C39.2134 17.0769 38.9553 17.1207 38.6547 17.1207ZM38.8855 16.2685C39.179 16.2685 39.43 16.2105 39.6383 16.0945C39.849 15.9785 40.0088 15.8269 40.1177 15.6399C40.229 15.4505 40.2846 15.2481 40.2846 15.0327V14.3295C40.2467 14.3674 40.1734 14.4029 40.0645 14.4361C39.9579 14.4669 39.836 14.4941 39.6987 14.5178C39.5614 14.5391 39.4276 14.5592 39.2974 14.5781C39.1672 14.5947 39.0583 14.6089 38.9707 14.6207C38.7647 14.6468 38.5765 14.6906 38.4061 14.7521C38.238 14.8137 38.103 14.9025 38.0012 15.0185C37.9018 15.1321 37.8521 15.2836 37.8521 15.473C37.8521 15.7358 37.9492 15.9347 38.1433 16.0696C38.3374 16.2022 38.5848 16.2685 38.8855 16.2685ZM42.8459 17V9.72727H43.9077V12.4297H43.9716C44.0331 12.3161 44.1219 12.1847 44.2379 12.0355C44.3539 11.8864 44.5149 11.7562 44.7209 11.6449C44.9268 11.5312 45.1991 11.4744 45.5376 11.4744C45.978 11.4744 46.371 11.5857 46.7166 11.8082C47.0623 12.0308 47.3333 12.3516 47.5298 12.7706C47.7287 13.1896 47.8281 13.6939 47.8281 14.2834C47.8281 14.8729 47.7299 15.3783 47.5334 15.7997C47.3369 16.2187 47.067 16.5419 46.7237 16.7692C46.3804 16.9941 45.9886 17.1065 45.5483 17.1065C45.2169 17.1065 44.9458 17.0509 44.7351 16.9396C44.5268 16.8284 44.3634 16.6982 44.245 16.549C44.1267 16.3999 44.0355 16.2673 43.9716 16.1513H43.8828V17H42.8459ZM43.8864 14.2727C43.8864 14.6562 43.942 14.9924 44.0533 15.2812C44.1645 15.5701 44.3255 15.7962 44.5362 15.9595C44.7469 16.1205 45.005 16.201 45.3104 16.201C45.6276 16.201 45.8928 16.117 46.1058 15.9489C46.3189 15.7784 46.4799 15.5476 46.5888 15.2564C46.7 14.9652 46.7557 14.6373 46.7557 14.2727C46.7557 13.9129 46.7012 13.5897 46.5923 13.3033C46.4858 13.0168 46.3248 12.7907 46.1094 12.625C45.8963 12.4593 45.63 12.3764 45.3104 12.3764C45.0026 12.3764 44.7422 12.4557 44.5291 12.6143C44.3184 12.773 44.1586 12.9943 44.0497 13.2784C43.9408 13.5625 43.8864 13.8939 43.8864 14.2727ZM50.0822 9.72727V17H49.0204V9.72727H50.0822ZM53.8615 17.1101C53.3241 17.1101 52.8613 16.9953 52.473 16.7656C52.0871 16.5336 51.7888 16.2081 51.5781 15.7891C51.3698 15.3677 51.2656 14.8741 51.2656 14.3082C51.2656 13.7495 51.3698 13.2571 51.5781 12.831C51.7888 12.4048 52.0824 12.0722 52.4588 11.8331C52.8376 11.594 53.2803 11.4744 53.7869 11.4744C54.0947 11.4744 54.393 11.5253 54.6818 11.6271C54.9706 11.7289 55.2299 11.8887 55.4595 12.1065C55.6892 12.3243 55.8703 12.6072 56.0028 12.9553C56.1354 13.3009 56.2017 13.7211 56.2017 14.2159V14.5923H51.8658V13.7969H55.1612C55.1612 13.5175 55.1044 13.2701 54.9908 13.0547C54.8771 12.8369 54.7173 12.6652 54.5114 12.5398C54.3078 12.4143 54.0687 12.3516 53.794 12.3516C53.4957 12.3516 53.2353 12.425 53.0128 12.5717C52.7926 12.7161 52.6222 12.9055 52.5014 13.1399C52.383 13.3719 52.3239 13.6241 52.3239 13.8963V14.5178C52.3239 14.8823 52.3878 15.1925 52.5156 15.4482C52.6458 15.7038 52.8269 15.8991 53.0589 16.0341C53.291 16.1667 53.562 16.233 53.8722 16.233C54.0734 16.233 54.2569 16.2045 54.4226 16.1477C54.5883 16.0885 54.7315 16.0009 54.8523 15.8849C54.973 15.7689 55.0653 15.6257 55.1293 15.4553L56.1342 15.6364C56.0537 15.9323 55.9093 16.1915 55.701 16.4141C55.495 16.6342 55.2358 16.8059 54.9233 16.929C54.6132 17.0497 54.2592 17.1101 53.8615 17.1101ZM59.7528 10.6719V9.72727H65.3814V10.6719H63.1122V17H62.0185V10.6719H59.7528ZM70.5811 11.5455L68.6032 17H67.4668L65.4853 11.5455H66.6252L68.0066 15.7429H68.0634L69.4412 11.5455H70.5811Z" fill="white"/>
</svg>
