<svg width="79" height="30" viewBox="0 0 79 30" fill="none" xmlns="http://www.w3.org/2000/svg">
<circle cx="15" cy="15" r="15" fill="#4B795D"/>
<path d="M10.4979 16.6794L9.01042 15.0353C9.70694 14.2833 10.5246 13.6876 11.4634 13.2482C12.4017 12.8082 13.4139 12.5882 14.5 12.5882C15.5861 12.5882 16.5986 12.8113 17.5373 13.2574C18.4756 13.7034 19.2931 14.3088 19.9896 15.0735L18.5021 16.6794C17.9826 16.1186 17.3806 15.6789 16.6958 15.3603C16.0111 15.0417 15.2792 14.8824 14.5 14.8824C13.7208 14.8824 12.9889 15.0417 12.3042 15.3603C11.6194 15.6789 11.0174 16.1186 10.4979 16.6794ZM7.4875 13.4294L6 11.8235C7.08611 10.6255 8.35521 9.68873 9.80729 9.01324C11.2594 8.33774 12.8236 8 14.5 8C16.1764 8 17.7406 8.33774 19.1927 9.01324C20.6448 9.68873 21.9139 10.6255 23 11.8235L21.5125 13.4294C20.6035 12.448 19.5499 11.68 18.3519 11.1254C17.1534 10.5712 15.8694 10.2941 14.5 10.2941C13.1306 10.2941 11.8466 10.5712 10.6481 11.1254C9.45006 11.68 8.39653 12.448 7.4875 13.4294ZM14.5 21L16.9969 18.2853C16.6781 17.9412 16.3062 17.6702 15.8812 17.4724C15.4562 17.2751 14.9958 17.1765 14.5 17.1765C14.0042 17.1765 13.5437 17.2751 13.1187 17.4724C12.6937 17.6702 12.3219 17.9412 12.0031 18.2853L14.5 21Z" fill="white"/>
<path d="M27 7H71.5C75.6421 7 79 10.3579 79 14.5V14.5C79 18.6421 75.6421 22 71.5 22H27V7Z" fill="#4B795D"/>
<path d="M32.799 18V10.7273H37.3089V11.6719H33.8963V13.8878H36.9858V14.8288H33.8963V18H32.799ZM38.5048 18V12.5455H39.5311V13.4119H39.5879C39.6873 13.1184 39.8625 12.8875 40.1135 12.7195C40.3668 12.549 40.6532 12.4638 40.9728 12.4638C41.0391 12.4638 41.1172 12.4661 41.2072 12.4709C41.2995 12.4756 41.3717 12.4815 41.4238 12.4886V13.5043C41.3812 13.4924 41.3055 13.4794 41.1966 13.4652C41.0877 13.4486 40.9788 13.4403 40.8699 13.4403C40.6189 13.4403 40.3952 13.4936 40.1987 13.6001C40.0046 13.7043 39.8507 13.8499 39.737 14.0369C39.6234 14.2216 39.5666 14.4323 39.5666 14.669V18H38.5048ZM44.4982 18.1101C43.9608 18.1101 43.498 17.9953 43.1097 17.7656C42.7238 17.5336 42.4255 17.2081 42.2148 16.7891C42.0065 16.3677 41.9023 15.8741 41.9023 15.3082C41.9023 14.7495 42.0065 14.2571 42.2148 13.831C42.4255 13.4048 42.7191 13.0722 43.0955 12.8331C43.4743 12.594 43.917 12.4744 44.4237 12.4744C44.7314 12.4744 45.0297 12.5253 45.3185 12.6271C45.6074 12.7289 45.8666 12.8887 46.0962 13.1065C46.3259 13.3243 46.507 13.6072 46.6396 13.9553C46.7721 14.3009 46.8384 14.7211 46.8384 15.2159V15.5923H42.5025V14.7969H45.7979C45.7979 14.5175 45.7411 14.2701 45.6275 14.0547C45.5138 13.8369 45.354 13.6652 45.1481 13.5398C44.9445 13.4143 44.7054 13.3516 44.4308 13.3516C44.1325 13.3516 43.872 13.425 43.6495 13.5717C43.4293 13.7161 43.2589 13.9055 43.1381 14.1399C43.0198 14.3719 42.9606 14.6241 42.9606 14.8963V15.5178C42.9606 15.8823 43.0245 16.1925 43.1523 16.4482C43.2826 16.7038 43.4637 16.8991 43.6957 17.0341C43.9277 17.1667 44.1987 17.233 44.5089 17.233C44.7101 17.233 44.8936 17.2045 45.0593 17.1477C45.225 17.0885 45.3683 17.0009 45.489 16.8849C45.6097 16.7689 45.7021 16.6257 45.766 16.4553L46.771 16.6364C46.6905 16.9323 46.546 17.1915 46.3377 17.4141C46.1317 17.6342 45.8725 17.8059 45.56 17.929C45.2499 18.0497 44.896 18.1101 44.4982 18.1101ZM50.3674 18.1101C49.83 18.1101 49.3671 17.9953 48.9789 17.7656C48.593 17.5336 48.2947 17.2081 48.084 16.7891C47.8757 16.3677 47.7715 15.8741 47.7715 15.3082C47.7715 14.7495 47.8757 14.2571 48.084 13.831C48.2947 13.4048 48.5882 13.0722 48.9647 12.8331C49.3435 12.594 49.7862 12.4744 50.2928 12.4744C50.6006 12.4744 50.8989 12.5253 51.1877 12.6271C51.4765 12.7289 51.7357 12.8887 51.9654 13.1065C52.195 13.3243 52.3761 13.6072 52.5087 13.9553C52.6413 14.3009 52.7076 14.7211 52.7076 15.2159V15.5923H48.3716V14.7969H51.6671C51.6671 14.5175 51.6103 14.2701 51.4966 14.0547C51.383 13.8369 51.2232 13.6652 51.0172 13.5398C50.8136 13.4143 50.5745 13.3516 50.2999 13.3516C50.0016 13.3516 49.7412 13.425 49.5186 13.5717C49.2985 13.7161 49.128 13.9055 49.0073 14.1399C48.8889 14.3719 48.8297 14.6241 48.8297 14.8963V15.5178C48.8297 15.8823 48.8936 16.1925 49.0215 16.4482C49.1517 16.7038 49.3328 16.8991 49.5648 17.0341C49.7968 17.1667 50.0679 17.233 50.378 17.233C50.5792 17.233 50.7627 17.2045 50.9284 17.1477C51.0942 17.0885 51.2374 17.0009 51.3581 16.8849C51.4789 16.7689 51.5712 16.6257 51.6351 16.4553L52.6401 16.6364C52.5596 16.9323 52.4152 17.1915 52.2069 17.4141C52.0009 17.6342 51.7417 17.8059 51.4292 17.929C51.119 18.0497 50.7651 18.1101 50.3674 18.1101ZM57.7147 18L56.1096 12.5455H57.2069L58.2757 16.5511H58.329L59.4015 12.5455H60.4988L61.5641 16.5334H61.6174L62.6792 12.5455H63.7765L62.1749 18H61.0918L59.9838 14.0618H59.9022L58.7942 18H57.7147ZM64.7841 18V12.5455H65.8459V18H64.7841ZM65.3203 11.7038C65.1357 11.7038 64.977 11.6423 64.8445 11.5192C64.7143 11.3937 64.6491 11.2446 64.6491 11.0717C64.6491 10.8965 64.7143 10.7474 64.8445 10.6243C64.977 10.4988 65.1357 10.4361 65.3203 10.4361C65.505 10.4361 65.6624 10.4988 65.7926 10.6243C65.9252 10.7474 65.9915 10.8965 65.9915 11.0717C65.9915 11.2446 65.9252 11.3937 65.7926 11.5192C65.6624 11.6423 65.505 11.7038 65.3203 11.7038ZM69.8702 12.5455V13.3977H66.7878V12.5455H69.8702ZM67.633 18V11.9134C67.633 11.5724 67.7076 11.2895 67.8567 11.0646C68.0059 10.8374 68.2035 10.6681 68.4498 10.5568C68.696 10.4432 68.9635 10.3864 69.2523 10.3864C69.4654 10.3864 69.6477 10.4041 69.7992 10.4396C69.9507 10.4728 70.0632 10.5036 70.1365 10.532L69.888 11.3913C69.8382 11.3771 69.7743 11.3606 69.6962 11.3416C69.6181 11.3203 69.5234 11.3097 69.4121 11.3097C69.1541 11.3097 68.9694 11.3736 68.8581 11.5014C68.7492 11.6293 68.6948 11.8139 68.6948 12.0554V18H67.633ZM70.9657 18V12.5455H72.0275V18H70.9657ZM71.502 11.7038C71.3173 11.7038 71.1587 11.6423 71.0261 11.5192C70.8959 11.3937 70.8308 11.2446 70.8308 11.0717C70.8308 10.8965 70.8959 10.7474 71.0261 10.6243C71.1587 10.4988 71.3173 10.4361 71.502 10.4361C71.6866 10.4361 71.844 10.4988 71.9743 10.6243C72.1068 10.7474 72.1731 10.8965 72.1731 11.0717C72.1731 11.2446 72.1068 11.3937 71.9743 11.5192C71.844 11.6423 71.6866 11.7038 71.502 11.7038Z" fill="white"/>
</svg>
