<svg width="100" height="30" viewBox="0 0 100 30" fill="none" xmlns="http://www.w3.org/2000/svg">
<circle cx="15" cy="15" r="15" fill="#4B795D"/>
<path d="M11 10.6923V8.53846C11 8.39565 11.0602 8.25869 11.1674 8.15771C11.2745 8.05673 11.4199 8 11.5714 8C11.723 8 11.8683 8.05673 11.9755 8.15771C12.0827 8.25869 12.1429 8.39565 12.1429 8.53846V10.6923C12.1429 10.8351 12.0827 10.9721 11.9755 11.0731C11.8683 11.174 11.723 11.2308 11.5714 11.2308C11.4199 11.2308 11.2745 11.174 11.1674 11.0731C11.0602 10.9721 11 10.8351 11 10.6923ZM13.8571 11.2308C14.0087 11.2308 14.154 11.174 14.2612 11.0731C14.3684 10.9721 14.4286 10.8351 14.4286 10.6923V8.53846C14.4286 8.39565 14.3684 8.25869 14.2612 8.15771C14.154 8.05673 14.0087 8 13.8571 8C13.7056 8 13.5602 8.05673 13.4531 8.15771C13.3459 8.25869 13.2857 8.39565 13.2857 8.53846V10.6923C13.2857 10.8351 13.3459 10.9721 13.4531 11.0731C13.5602 11.174 13.7056 11.2308 13.8571 11.2308ZM16.1429 11.2308C16.2944 11.2308 16.4398 11.174 16.5469 11.0731C16.6541 10.9721 16.7143 10.8351 16.7143 10.6923V8.53846C16.7143 8.39565 16.6541 8.25869 16.5469 8.15771C16.4398 8.05673 16.2944 8 16.1429 8C15.9913 8 15.846 8.05673 15.7388 8.15771C15.6316 8.25869 15.5714 8.39565 15.5714 8.53846V10.6923C15.5714 10.8351 15.6316 10.9721 15.7388 11.0731C15.846 11.174 15.9913 11.2308 16.1429 11.2308ZM23 15V15.5385C22.9996 16.2231 22.7224 16.8819 22.2248 17.3808C21.7272 17.8797 21.0466 18.1812 20.3214 18.224C19.9278 19.2614 19.2648 20.1893 18.3929 20.9231H20.1429C20.2944 20.9231 20.4398 20.9798 20.5469 21.0808C20.6541 21.1818 20.7143 21.3187 20.7143 21.4615C20.7143 21.6043 20.6541 21.7413 20.5469 21.8423C20.4398 21.9433 20.2944 22 20.1429 22H7.57143C7.41988 22 7.27453 21.9433 7.16737 21.8423C7.0602 21.7413 7 21.6043 7 21.4615C7 21.3187 7.0602 21.1818 7.16737 21.0808C7.27453 20.9798 7.41988 20.9231 7.57143 20.9231H9.32143C8.59323 20.3156 8.00986 19.5697 7.60974 18.7344C7.20961 17.8991 7.0018 16.9934 7 16.0769V12.8462C7 12.7033 7.0602 12.5664 7.16737 12.4654C7.27453 12.3644 7.41988 12.3077 7.57143 12.3077H20.1429C20.9006 12.3077 21.6273 12.5913 22.1632 13.0963C22.699 13.6012 23 14.286 23 15ZM21.8571 15C21.8567 14.6663 21.7466 14.3408 21.542 14.0684C21.3374 13.7961 21.0482 13.5901 20.7143 13.4788V16.0769C20.7147 16.4151 20.6861 16.7527 20.6286 17.0865C20.9831 16.9878 21.2943 16.7838 21.5157 16.5048C21.7371 16.2258 21.8569 15.8868 21.8571 15.5385V15Z" fill="white"/>
<path d="M27 7H92.5C96.6421 7 100 10.3579 100 14.5V14.5C100 18.6421 96.6421 22 92.5 22H27V7Z" fill="#4B795D"/>
<path d="M34.4455 18V10.7273H37.0378C37.6013 10.7273 38.0688 10.8243 38.4405 11.0185C38.8146 11.2126 39.0939 11.4813 39.2786 11.8246C39.4632 12.1655 39.5556 12.5597 39.5556 13.0071C39.5556 13.4522 39.4621 13.844 39.275 14.1825C39.0904 14.5187 38.811 14.7803 38.437 14.9673C38.0653 15.1544 37.5977 15.2479 37.0343 15.2479H35.0705V14.3033H36.9348C37.29 14.3033 37.5788 14.2524 37.8013 14.1506C38.0262 14.0488 38.1908 13.9008 38.2949 13.7067C38.3991 13.5125 38.4512 13.2794 38.4512 13.0071C38.4512 12.7325 38.3979 12.4946 38.2914 12.2933C38.1872 12.0921 38.0227 11.9382 37.7978 11.8317C37.5752 11.7228 37.2828 11.6683 36.9206 11.6683H35.5428V18H34.4455ZM38.0357 14.7188L39.8326 18H38.5826L36.8212 14.7188H38.0357ZM43.0881 18.1101C42.5507 18.1101 42.0878 17.9953 41.6996 17.7656C41.3137 17.5336 41.0154 17.2081 40.8047 16.7891C40.5964 16.3677 40.4922 15.8741 40.4922 15.3082C40.4922 14.7495 40.5964 14.2571 40.8047 13.831C41.0154 13.4048 41.3089 13.0722 41.6854 12.8331C42.0642 12.594 42.5069 12.4744 43.0135 12.4744C43.3213 12.4744 43.6196 12.5253 43.9084 12.6271C44.1972 12.7289 44.4564 12.8887 44.6861 13.1065C44.9157 13.3243 45.0968 13.6072 45.2294 13.9553C45.362 14.3009 45.4283 14.7211 45.4283 15.2159V15.5923H41.0923V14.7969H44.3878C44.3878 14.5175 44.331 14.2701 44.2173 14.0547C44.1037 13.8369 43.9439 13.6652 43.7379 13.5398C43.5343 13.4143 43.2952 13.3516 43.0206 13.3516C42.7223 13.3516 42.4619 13.425 42.2393 13.5717C42.0192 13.7161 41.8487 13.9055 41.728 14.1399C41.6096 14.3719 41.5504 14.6241 41.5504 14.8963V15.5178C41.5504 15.8823 41.6143 16.1925 41.7422 16.4482C41.8724 16.7038 42.0535 16.8991 42.2855 17.0341C42.5175 17.1667 42.7886 17.233 43.0987 17.233C43.3 17.233 43.4834 17.2045 43.6491 17.1477C43.8149 17.0885 43.9581 17.0009 44.0788 16.8849C44.1996 16.7689 44.2919 16.6257 44.3558 16.4553L45.3608 16.6364C45.2803 16.9323 45.1359 17.1915 44.9276 17.4141C44.7216 17.6342 44.4624 17.8059 44.1499 17.929C43.8397 18.0497 43.4858 18.1101 43.0881 18.1101ZM50.6937 13.8771L49.7314 14.0476C49.6911 13.9245 49.6272 13.8073 49.5396 13.696C49.4544 13.5848 49.3384 13.4936 49.1916 13.4226C49.0448 13.3516 48.8613 13.3161 48.6412 13.3161C48.3405 13.3161 48.0895 13.3835 47.8883 13.5185C47.6871 13.651 47.5865 13.8227 47.5865 14.0334C47.5865 14.2157 47.6539 14.3625 47.7889 14.4737C47.9238 14.585 48.1416 14.6761 48.4423 14.7472L49.3088 14.946C49.8107 15.062 50.1847 15.2408 50.4309 15.4822C50.6771 15.7237 50.8002 16.0374 50.8002 16.4233C50.8002 16.75 50.7056 17.0412 50.5162 17.2969C50.3291 17.5502 50.0675 17.7491 49.7314 17.8935C49.3975 18.0379 49.0105 18.1101 48.5701 18.1101C47.9593 18.1101 47.461 17.9799 47.0751 17.7195C46.6892 17.4567 46.4525 17.0838 46.3649 16.6009L47.3912 16.4446C47.4551 16.7121 47.5865 16.9145 47.7853 17.0518C47.9842 17.1868 48.2434 17.2543 48.563 17.2543C48.911 17.2543 49.1892 17.1821 49.3975 17.0376C49.6059 16.8909 49.71 16.7121 49.71 16.5014C49.71 16.331 49.6461 16.1877 49.5183 16.0717C49.3928 15.9557 49.1999 15.8681 48.9395 15.8089L48.0162 15.6065C47.5072 15.4905 47.1307 15.3059 46.8869 15.0526C46.6454 14.7992 46.5247 14.4785 46.5247 14.0902C46.5247 13.7682 46.6146 13.4865 46.7946 13.245C46.9745 13.0036 47.2231 12.8153 47.5403 12.6804C47.8575 12.5431 48.2209 12.4744 48.6305 12.4744C49.22 12.4744 49.684 12.6023 50.0225 12.858C50.3611 13.1113 50.5848 13.451 50.6937 13.8771ZM54.5138 12.5455V13.3977H51.5344V12.5455H54.5138ZM52.3335 11.2386H53.3952V16.3984C53.3952 16.6044 53.426 16.7595 53.4876 16.8636C53.5491 16.9654 53.6284 17.0353 53.7255 17.0732C53.8249 17.1087 53.9326 17.1264 54.0487 17.1264C54.1339 17.1264 54.2085 17.1205 54.2724 17.1087C54.3363 17.0968 54.386 17.0874 54.4215 17.0803L54.6133 17.9574C54.5517 17.9811 54.4641 18.0047 54.3505 18.0284C54.2369 18.0545 54.0948 18.0687 53.9244 18.071C53.645 18.0758 53.3846 18.026 53.1431 17.9219C52.9016 17.8177 52.7063 17.6567 52.5572 17.4389C52.408 17.2211 52.3335 16.9477 52.3335 16.6186V11.2386ZM57.2757 18.1207C56.9301 18.1207 56.6176 18.0568 56.3382 17.929C56.0589 17.7988 55.8375 17.6106 55.6742 17.3643C55.5132 17.1181 55.4327 16.8163 55.4327 16.4588C55.4327 16.151 55.4919 15.8977 55.6103 15.6989C55.7286 15.5 55.8884 15.3426 56.0897 15.2266C56.2909 15.1106 56.5158 15.023 56.7644 14.9638C57.013 14.9046 57.2663 14.8596 57.5243 14.8288C57.851 14.791 58.1162 14.7602 58.3198 14.7365C58.5234 14.7105 58.6713 14.669 58.7637 14.6122C58.856 14.5554 58.9022 14.4631 58.9022 14.3352V14.3104C58.9022 14.0002 58.8146 13.7599 58.6394 13.5895C58.4666 13.419 58.2085 13.3338 57.8652 13.3338C57.5078 13.3338 57.226 13.4131 57.0201 13.5717C56.8165 13.728 56.6756 13.902 56.5975 14.0938L55.5996 13.8665C55.718 13.535 55.8908 13.2675 56.1181 13.0639C56.3477 12.858 56.6117 12.7088 56.91 12.6165C57.2083 12.5218 57.522 12.4744 57.851 12.4744C58.0688 12.4744 58.2997 12.5005 58.5435 12.5526C58.7897 12.6023 59.0194 12.6946 59.2324 12.8295C59.4479 12.9645 59.6242 13.1574 59.7615 13.4084C59.8989 13.657 59.9675 13.9801 59.9675 14.3778V18H58.9306V17.2543H58.888C58.8193 17.3916 58.7163 17.5265 58.579 17.6591C58.4417 17.7917 58.2653 17.9018 58.0499 17.9893C57.8345 18.0769 57.5764 18.1207 57.2757 18.1207ZM57.5066 17.2685C57.8001 17.2685 58.0511 17.2105 58.2594 17.0945C58.4701 16.9785 58.6299 16.8269 58.7388 16.6399C58.8501 16.4505 58.9057 16.2481 58.9057 16.0327V15.3295C58.8678 15.3674 58.7944 15.4029 58.6855 15.4361C58.579 15.4669 58.4571 15.4941 58.3198 15.5178C58.1825 15.5391 58.0487 15.5592 57.9185 15.5781C57.7883 15.5947 57.6794 15.6089 57.5918 15.6207C57.3858 15.6468 57.1976 15.6906 57.0272 15.7521C56.8591 15.8137 56.7241 15.9025 56.6223 16.0185C56.5229 16.1321 56.4732 16.2836 56.4732 16.473C56.4732 16.7358 56.5703 16.9347 56.7644 17.0696C56.9585 17.2022 57.2059 17.2685 57.5066 17.2685ZM64.837 15.7379V12.5455H65.9023V18H64.8583V17.0554H64.8015C64.676 17.3466 64.4748 17.5893 64.1978 17.7834C63.9232 17.9751 63.5811 18.071 63.1715 18.071C62.8211 18.071 62.511 17.9941 62.2411 17.8402C61.9736 17.6839 61.7629 17.4531 61.609 17.1477C61.4575 16.8423 61.3817 16.4647 61.3817 16.0149V12.5455H62.4435V15.8871C62.4435 16.2588 62.5465 16.5547 62.7525 16.7749C62.9585 16.995 63.226 17.1051 63.555 17.1051C63.7539 17.1051 63.9516 17.0554 64.1481 16.956C64.3469 16.8565 64.5115 16.7062 64.6417 16.505C64.7743 16.3037 64.8394 16.0481 64.837 15.7379ZM67.329 18V12.5455H68.3553V13.4119H68.4121C68.5115 13.1184 68.6867 12.8875 68.9377 12.7195C69.191 12.549 69.4775 12.4638 69.7971 12.4638C69.8633 12.4638 69.9415 12.4661 70.0314 12.4709C70.1238 12.4756 70.196 12.4815 70.248 12.4886V13.5043C70.2054 13.4924 70.1297 13.4794 70.0208 13.4652C69.9119 13.4486 69.803 13.4403 69.6941 13.4403C69.4431 13.4403 69.2194 13.4936 69.0229 13.6001C68.8288 13.7043 68.6749 13.8499 68.5613 14.0369C68.4476 14.2216 68.3908 14.4323 68.3908 14.669V18H67.329ZM72.7054 18.1207C72.3598 18.1207 72.0473 18.0568 71.7679 17.929C71.4886 17.7988 71.2672 17.6106 71.1039 17.3643C70.9429 17.1181 70.8624 16.8163 70.8624 16.4588C70.8624 16.151 70.9216 15.8977 71.04 15.6989C71.1583 15.5 71.3181 15.3426 71.5194 15.2266C71.7206 15.1106 71.9455 15.023 72.1941 14.9638C72.4426 14.9046 72.696 14.8596 72.954 14.8288C73.2807 14.791 73.5459 14.7602 73.7495 14.7365C73.9531 14.7105 74.101 14.669 74.1934 14.6122C74.2857 14.5554 74.3319 14.4631 74.3319 14.3352V14.3104C74.3319 14.0002 74.2443 13.7599 74.0691 13.5895C73.8962 13.419 73.6382 13.3338 73.2949 13.3338C72.9374 13.3338 72.6557 13.4131 72.4498 13.5717C72.2462 13.728 72.1053 13.902 72.0272 14.0938L71.0293 13.8665C71.1477 13.535 71.3205 13.2675 71.5478 13.0639C71.7774 12.858 72.0414 12.7088 72.3397 12.6165C72.638 12.5218 72.9516 12.4744 73.2807 12.4744C73.4985 12.4744 73.7293 12.5005 73.9732 12.5526C74.2194 12.6023 74.449 12.6946 74.6621 12.8295C74.8775 12.9645 75.0539 13.1574 75.1912 13.4084C75.3285 13.657 75.3972 13.9801 75.3972 14.3778V18H74.3603V17.2543H74.3176C74.249 17.3916 74.146 17.5265 74.0087 17.6591C73.8714 17.7917 73.695 17.9018 73.4796 17.9893C73.2641 18.0769 73.0061 18.1207 72.7054 18.1207ZM72.9363 17.2685C73.2298 17.2685 73.4808 17.2105 73.6891 17.0945C73.8998 16.9785 74.0596 16.8269 74.1685 16.6399C74.2798 16.4505 74.3354 16.2481 74.3354 16.0327V15.3295C74.2975 15.3674 74.2241 15.4029 74.1152 15.4361C74.0087 15.4669 73.8868 15.4941 73.7495 15.5178C73.6122 15.5391 73.4784 15.5592 73.3482 15.5781C73.218 15.5947 73.1091 15.6089 73.0215 15.6207C72.8155 15.6468 72.6273 15.6906 72.4569 15.7521C72.2888 15.8137 72.1538 15.9025 72.052 16.0185C71.9526 16.1321 71.9029 16.2836 71.9029 16.473C71.9029 16.7358 71.9999 16.9347 72.1941 17.0696C72.3882 17.2022 72.6356 17.2685 72.9363 17.2685ZM77.8732 14.7614V18H76.8114V12.5455H77.8306V13.4332H77.8981C78.0236 13.1444 78.2201 12.9124 78.4876 12.7372C78.7575 12.562 79.0972 12.4744 79.5067 12.4744C79.8784 12.4744 80.204 12.5526 80.4833 12.7088C80.7627 12.8627 80.9793 13.0923 81.1332 13.3977C81.2871 13.7031 81.364 14.0807 81.364 14.5305V18H80.3022V14.6584C80.3022 14.263 80.1992 13.9541 79.9933 13.7315C79.7873 13.5066 79.5044 13.3942 79.1445 13.3942C78.8983 13.3942 78.6793 13.4474 78.4876 13.554C78.2982 13.6605 78.1478 13.8168 78.0366 14.0227C77.9277 14.2263 77.8732 14.4725 77.8732 14.7614ZM85.3342 12.5455V13.3977H82.3548V12.5455H85.3342ZM83.1538 11.2386H84.2156V16.3984C84.2156 16.6044 84.2463 16.7595 84.3079 16.8636C84.3694 16.9654 84.4487 17.0353 84.5458 17.0732C84.6452 17.1087 84.753 17.1264 84.869 17.1264C84.9542 17.1264 85.0288 17.1205 85.0927 17.1087C85.1566 17.0968 85.2063 17.0874 85.2418 17.0803L85.4336 17.9574C85.372 17.9811 85.2844 18.0047 85.1708 18.0284C85.0572 18.0545 84.9151 18.0687 84.7447 18.071C84.4653 18.0758 84.2049 18.026 83.9634 17.9219C83.7219 17.8177 83.5266 17.6567 83.3775 17.4389C83.2283 17.2211 83.1538 16.9477 83.1538 16.6186V11.2386ZM90.5082 13.8771L89.5458 14.0476C89.5056 13.9245 89.4416 13.8073 89.354 13.696C89.2688 13.5848 89.1528 13.4936 89.006 13.4226C88.8593 13.3516 88.6758 13.3161 88.4556 13.3161C88.1549 13.3161 87.904 13.3835 87.7028 13.5185C87.5015 13.651 87.4009 13.8227 87.4009 14.0334C87.4009 14.2157 87.4684 14.3625 87.6033 14.4737C87.7383 14.585 87.9561 14.6761 88.2567 14.7472L89.1232 14.946C89.6251 15.062 89.9992 15.2408 90.2454 15.4822C90.4916 15.7237 90.6147 16.0374 90.6147 16.4233C90.6147 16.75 90.52 17.0412 90.3306 17.2969C90.1436 17.5502 89.882 17.7491 89.5458 17.8935C89.212 18.0379 88.8249 18.1101 88.3846 18.1101C87.7738 18.1101 87.2754 17.9799 86.8896 17.7195C86.5037 17.4567 86.2669 17.0838 86.1793 16.6009L87.2056 16.4446C87.2695 16.7121 87.4009 16.9145 87.5998 17.0518C87.7987 17.1868 88.0579 17.2543 88.3775 17.2543C88.7255 17.2543 89.0037 17.1821 89.212 17.0376C89.4203 16.8909 89.5245 16.7121 89.5245 16.5014C89.5245 16.331 89.4606 16.1877 89.3327 16.0717C89.2073 15.9557 89.0143 15.8681 88.7539 15.8089L87.8306 15.6065C87.3216 15.4905 86.9452 15.3059 86.7013 15.0526C86.4599 14.7992 86.3391 14.4785 86.3391 14.0902C86.3391 13.7682 86.4291 13.4865 86.609 13.245C86.7889 13.0036 87.0375 12.8153 87.3548 12.6804C87.672 12.5431 88.0354 12.4744 88.445 12.4744C89.0344 12.4744 89.4985 12.6023 89.837 12.858C90.1755 13.1113 90.3993 13.451 90.5082 13.8771Z" fill="white"/>
</svg>
